<svg width="50" height="64" viewBox="0 0 50 64" fill="none" xmlns="http://www.w3.org/2000/svg">
<rect width="50" height="54.9924" rx="8" fill="#2405F2"/>
<mask id="mask0_0_1197" style="mask-type:alpha" maskUnits="userSpaceOnUse" x="0" y="0" width="50" height="55">
<rect width="50" height="54.9924" rx="8" fill="#5C5E84"/>
</mask>
<g mask="url(#mask0_0_1197)">
<rect x="-26" y="29.6958" width="50" height="54.9924" rx="8" fill="#FCD980"/>
<rect x="8" y="-9.89868" width="50" height="54.9924" rx="8" fill="#5239FA"/>
</g>
<path d="M16.08 25.1664C16.08 23.0904 16.428 21.4704 17.124 20.3064C17.832 19.1304 19.044 18.5424 20.76 18.5424C22.476 18.5424 23.682 19.1304 24.378 20.3064C25.086 21.4704 25.44 23.0904 25.44 25.1664C25.44 27.2664 25.086 28.9104 24.378 30.0984C23.682 31.2744 22.476 31.8624 20.76 31.8624C19.044 31.8624 17.832 31.2744 17.124 30.0984C16.428 28.9104 16.08 27.2664 16.08 25.1664ZM23.424 25.1664C23.424 24.1944 23.358 23.3724 23.226 22.7004C23.106 22.0284 22.854 21.4824 22.47 21.0624C22.086 20.6304 21.516 20.4144 20.76 20.4144C20.004 20.4144 19.434 20.6304 19.05 21.0624C18.666 21.4824 18.408 22.0284 18.276 22.7004C18.156 23.3724 18.096 24.1944 18.096 25.1664C18.096 26.1744 18.156 27.0204 18.276 27.7044C18.396 28.3884 18.648 28.9404 19.032 29.3604C19.428 29.7804 20.004 29.9904 20.76 29.9904C21.516 29.9904 22.086 29.7804 22.47 29.3604C22.866 28.9404 23.124 28.3884 23.244 27.7044C23.364 27.0204 23.424 26.1744 23.424 25.1664ZM15.81 52.6484V50.7764H19.554V63.8984H17.484V52.6484H15.81Z" fill="white"/>
</svg>
